<svg xmlns="http://www.w3.org/2000/svg" viewBox="0 0 96 60">
  <path d="M24 18c2 20 20 32 40 24 8-3 14-9 18-17" fill="none" stroke="#000" stroke-width="7" stroke-linecap="round"/>
  <path d="M17 20c-8-7-16-5-19-3 4 8 12 10 20 6" fill="#f52e32" stroke="#000" stroke-width="5" stroke-linejoin="round"/>
  <path d="M31 42c18 6 42 0 54-21l11 2-1 8-8-1c-8 20-30 30-54 22-8-3-14-7-18-13 6 1 10 2 16 3z" fill="#ffe04f" stroke="#000" stroke-width="5" stroke-linejoin="round"/>
  <circle cx="78" cy="34" r="7" fill="#9ccc35" stroke="#000" stroke-width="5"/>
  <circle cx="88" cy="42" r="7" fill="#9ccc35" stroke="#000" stroke-width="5"/>
  <circle cx="76" cy="49" r="7" fill="#9ccc35" stroke="#000" stroke-width="5"/>
  <circle cx="34" cy="18" r="3.4" fill="#000"/>
  <circle cx="56" cy="17" r="3.4" fill="#000"/>
</svg>
